name C:\Users\u0101727\Documents\MyRepositories\paper-ad\predictivesimulations_2d/Results/PredSim_2D/IK_c28.mot
datacolumns 11
datarows 38
range 0.97472918 1.24589444
endheader
time	pelvis_tilt	pelvis_tx	pelvis_ty	hip_flexion_l	hip_flexion_r	knee_angle_l	knee_angle_r	ankle_angle_l	ankle_angle_r	lumbar_extension	
          0.97472918	         -9.44176443	          1.31282203	          0.96913160	          5.57224814	         18.07755691	        -12.51125099	        -41.22675333	        -11.42192617	        -21.33170008	          6.75451009	
          0.98205797	         -9.50294943	          1.32171174	          0.97009514	          4.70291013	         19.44031691	        -10.95712029	        -41.25282604	        -10.85355058	        -21.20248818	          6.66535247	
          0.98938676	         -9.57203020	          1.33051380	          0.97048609	          3.86870334	         20.79039297	         -9.44249666	        -41.16871273	        -10.13826361	        -20.92050050	          6.56414984	
          0.99671555	         -9.64757688	          1.33924038	          0.97030669	          3.06965975	         22.12447872	         -7.97685570	        -40.98017729	         -9.29029467	        -20.49478630	          6.45219608	
          1.00404434	         -9.72812451	          1.34790379	          0.96955928	          2.30610907	         23.43915750	         -6.56970635	        -40.69285827	         -8.31934420	        -19.93434373	          6.33077735	
          1.01137313	         -9.81208556	          1.35651786	          0.96824637	          1.57751992	         24.73081637	         -5.22814338	        -40.31419334	         -7.23266530	        -19.24804810	          6.20133094	
          1.01870192	         -9.89773407	          1.36509809	          0.96637101	          0.88337521	         25.99491170	         -3.95893542	        -39.85435141	         -6.03701962	        -18.44447439	          6.06543691	
          1.02603071	         -9.98329089	          1.37366122	          0.96393723	          0.22422296	         27.22524075	         -2.77118961	        -39.32676775	         -4.73985059	        -17.53136830	          5.92477949	
          1.03335950	        -10.06701672	          1.38222570	          0.96095047	         -0.39927488	         28.41360951	         -1.67452294	        -38.74953129	         -3.34946831	        -16.51482863	          5.78124807	
          1.04068830	        -10.14727665	          1.39081142	          0.95741795	         -0.98664994	         29.54996253	         -0.67788497	        -38.14609074	         -1.87501131	        -15.39820902	          5.63694062	
          1.04801709	        -10.22254168	          1.39943776	          0.95334839	         -1.53748785	         30.62425382	          0.21043022	        -37.54371166	         -0.32648716	        -14.18093340	          5.49392514	
          1.05534588	        -10.29136837	          1.40812133	          0.94875123	         -2.05126642	         31.62890748	          0.98265921	        -36.97093866	          1.28521841	        -12.85767381	          5.35394453	
          1.06267467	        -10.35239833	          1.41687553	          0.94363605	         -2.52732380	         32.55926747	          1.63149167	        -36.45687054	          2.94838546	        -11.41822804	          5.21835623	
          1.07000346	        -10.40439189	          1.42571167	          0.93801295	         -2.96488766	         33.41196713	          2.14965895	        -36.03225459	          4.65050427	         -9.84838059	          5.08828661	
          1.07733225	        -10.44629634	          1.43464014	          0.93189293	         -3.36441273	         34.18395675	          2.52964964	        -35.72956992	          6.37842315	         -8.13219255	          4.96481206	
          1.08466104	        -10.47738516	          1.44367161	          0.92528910	         -3.72851433	         34.87026717	          2.76672486	        -35.58399201	          8.11871537	         -6.25674512	          4.84920556	
          1.09198983	        -10.49736957	          1.45281808	          0.91822065	         -4.06047238	         35.45949762	          2.85653770	        -35.63647302	          9.85700236	         -4.21977360	          4.74311489	
          1.09931862	        -10.50635910	          1.46209377	          0.91072265	         -4.35837542	         35.92517332	          2.77383815	        -35.93919529	         11.58957323	         -2.03144376	          4.64852718	
          1.10664741	        -10.50628989	          1.47153111	          0.90286028	         -4.63961748	         36.21620297	          2.49934870	        -36.55002261	         13.31371487	          0.27048512	          4.57132131	
          1.11397620	        -10.49983903	          1.48120207	          0.89479694	         -4.93785111	         36.24051225	          1.86252464	        -37.57111786	         14.98950923	          2.56745148	          4.52286294	
          1.12130499	        -10.49140036	          1.49100244	          0.88700211	         -5.22241938	         36.06041090	          0.90840189	        -38.77002590	         16.62664415	          4.84040758	          4.49411851	
          1.12863379	        -10.48353372	          1.50086882	          0.88023642	         -5.47197947	         35.79522831	         -0.12129001	        -39.84406799	         18.23601116	          7.16736920	          4.47864676	
          1.13596258	        -10.47994094	          1.51092943	          0.87499739	         -5.69484220	         35.47892488	         -1.20395062	        -40.82787922	         19.64497318	          9.36974753	          4.49587818	
          1.14329137	        -10.47676041	          1.52122805	          0.87126408	         -5.86505975	         35.10799702	         -2.37374359	        -41.69454399	         20.66229723	         11.24031091	          4.54679251	
          1.15062016	        -10.46664289	          1.53172060	          0.86874729	         -5.96349297	         34.63742712	         -3.66238653	        -42.37093630	         21.23903028	         12.75094912	          4.61834470	
          1.15794895	        -10.45245637	          1.54231311	          0.86714956	         -5.98629723	         34.06250929	         -5.05756560	        -42.83276663	         21.40828634	         13.90667025	          4.70391538	
          1.16527774	        -10.43635289	          1.55294314	          0.86633658	         -5.93653910	         33.38029904	         -6.54663227	        -43.06495232	         21.21575255	         14.72674592	          4.79983524	
          1.17260653	        -10.41797469	          1.56360379	          0.86632125	         -5.81624498	         32.59246219	         -8.12662039	        -43.07124209	         20.67321604	         15.23382973	          4.90610130	
          1.17993532	        -10.39534589	          1.57431289	          0.86714218	         -5.62016694	         31.69925465	         -9.80239743	        -42.85493287	         19.76598875	         15.43359294	          5.02369132	
          1.18726411	        -10.36661100	          1.58508632	          0.86880614	         -5.34142951	         30.69687589	        -11.57873011	        -42.40942083	         18.47441975	         15.31403649	          5.15336567	
          1.19459290	        -10.32990483	          1.59592619	          0.87130807	         -4.96862968	         29.59093680	        -13.46226040	        -41.74494010	         16.77233718	         14.87595793	          5.29412202	
          1.20192169	        -10.28352805	          1.60682965	          0.87462836	         -4.48957426	         28.38944420	        -15.45817411	        -40.87648094	         14.63045544	         14.12694882	          5.44436843	
          1.20925048	        -10.22611694	          1.61778778	          0.87872897	         -3.89201718	         27.10432839	        -17.56865479	        -39.82498773	         12.01709595	         13.07395209	          5.60183257	
          1.21657928	        -10.15688496	          1.62878200	          0.88355301	         -3.16128842	         25.75011172	        -19.78009650	        -38.61324985	          8.90899012	         11.71896707	          5.76315835	
          1.22390807	        -10.07635522	          1.63979499	          0.88901171	         -2.30380445	         24.34648745	        -22.10519249	        -37.27173515	          5.28559159	         10.06437971	          5.92586925	
          1.23123686	         -9.98753202	          1.65078376	          0.89499116	         -1.32366909	         22.90734376	        -24.39202006	        -35.81726513	          1.58499705	          8.14347606	          6.08628997	
          1.23856565	         -9.89505221	          1.66169486	          0.90131271	         -0.24901079	         21.45257700	        -26.50712615	        -34.27848080	         -1.76353148	          6.01933884	          6.24054299	
          1.24589444	         -9.80112229	          1.67249790	          0.90782641	          0.88059077	         20.02653230	        -28.49382327	        -32.72782548	         -4.79648373	          3.70813030	          6.38458576	
